<svg xmlns="http://www.w3.org/2000/svg" fill="none" viewBox="0 0 10 10">
  <path fill="#000" fill-rule="evenodd" d="M3.46155 0.5C3.46155 0.223858 3.68541 0 3.96155 0L3.9654 1.4709e-05C4.05534 0.000693115 4.13963 0.025119 4.21231 0.0673328L7.31975 1.79369C7.47849 1.88188 7.57693 2.04919 7.57693 2.23077C7.57693 2.41235 7.47849 2.57966 7.31975 2.66785L4.46155 4.25574V6.06403C4.82174 6.18774 5.12153 6.44141 5.30493 6.76904H7.04224V5.54324C7.04224 5.34058 7.16456 5.15797 7.35197 5.08085C7.53938 5.00374 7.7548 5.04737 7.89743 5.19133L9.85518 7.16737C10.0483 7.36225 10.0483 7.6763 9.85518 7.87118L7.89743 9.84722C7.7548 9.99118 7.53938 10.0348 7.35197 9.9577C7.16456 9.88058 7.04224 9.69797 7.04224 9.49532V8.26904H5.30535C5.04225 8.73968 4.53906 9.05788 3.96156 9.05788C3.38405 9.05788 2.88087 8.73968 2.61776 8.26904H0.75C0.335786 8.26904 0 7.93326 0 7.51904C0 7.10483 0.335786 6.76904 0.75 6.76904H2.61818C2.80158 6.44141 3.10136 6.18775 3.46155 6.06403V3.96154V0.5Z" clip-rule="evenodd"/>
</svg>
