<svg xmlns="http://www.w3.org/2000/svg" fill="none" viewBox="0 0 10 10">
  <path fill="#000" fill-rule="evenodd" d="M3.98396 2.9503C3.44848 2.94522 2.90474 3.13429 2.41159 3.52605C1.96922 3.87748 1.58403 4.3801 1.30198 4.99992C1.58403 5.61975 1.96922 6.12237 2.41159 6.4738C2.90474 6.86555 3.44848 7.05463 3.98396 7.04955L3.98989 7.04949V7.04952C4.5308 7.04952 5.10065 6.80694 5.68238 6.36286C6.16437 5.99492 6.62133 5.51352 7.03326 4.99683C6.62155 4.4815 6.16481 4.00166 5.68307 3.63497C5.10154 3.19232 4.53143 2.95032 3.98989 2.95032H3.98396L3.98396 2.9503ZM7.788 6.04736C7.386 6.52277 6.93368 6.98023 6.44086 7.35644C5.73996 7.89149 4.9086 8.29864 3.99286 8.29952C3.14423 8.30685 2.32792 8.00375 1.63407 7.45255C0.942166 6.9029 0.397633 6.12833 0.0419803 5.22999C-0.0165315 5.08219 -0.0165315 4.91765 0.0419803 4.76986C0.397633 3.87152 0.942166 3.09695 1.63407 2.5473C2.32793 1.99609 3.14424 1.693 3.99287 1.70033C4.90797 1.7012 5.73908 2.10668 6.44017 2.64033C6.93292 3.0154 7.3852 3.47156 7.7872 3.9459C8.02878 3.57405 8.23426 3.22201 8.39633 2.92477C8.52955 2.68043 8.6316 2.47649 8.69886 2.33286C8.7328 2.26039 8.75595 2.2074 8.76931 2.17454C8.77003 2.17277 8.77069 2.17113 8.7713 2.1696C8.8405 1.89977 9.08533 1.70032 9.37675 1.70032C9.72193 1.70032 10.0017 1.98015 10.0017 2.32532C10.0017 2.40703 9.98517 2.47226 9.98131 2.48745L9.98097 2.48879C9.97444 2.51471 9.96729 2.53711 9.96213 2.55251C9.95154 2.58408 9.93907 2.61629 9.92726 2.64534C9.903 2.70501 9.8702 2.77902 9.83087 2.863C9.7516 3.03227 9.63781 3.25903 9.4938 3.52315C9.26664 3.93977 8.95973 4.45776 8.58816 4.99621C8.95975 5.53401 9.26672 6.05187 9.49401 6.46944C9.63811 6.73417 9.75213 6.96217 9.83167 7.13336C9.87112 7.21826 9.9042 7.29373 9.92875 7.35523C9.94072 7.38523 9.9534 7.4187 9.96413 7.45181C9.9694 7.46807 9.97648 7.49119 9.98285 7.51787L9.98301 7.51853C9.98702 7.53532 10.0017 7.59692 10.0017 7.67452C10.0017 8.0197 9.72193 8.29952 9.37675 8.29952C9.08259 8.29952 8.83589 8.0963 8.7694 7.8226C8.7689 7.82135 8.76838 7.82002 8.76781 7.81861C8.75474 7.78586 8.73188 7.73286 8.69806 7.66008C8.63107 7.5159 8.52925 7.31164 8.39612 7.06705C8.23434 6.76984 8.02919 6.41836 7.788 6.04736Z" clip-rule="evenodd"/>
</svg>
