<svg xmlns="http://www.w3.org/2000/svg" fill="none" viewBox="0 0 10 10">
  <path fill="#000" fill-rule="evenodd" d="M5.56967 0.492893C5.77643 0.217216 6.10023 0 6.5 0C6.89977 0 7.22357 0.217216 7.43033 0.492893C7.63697 0.768417 7.75 1.12613 7.75 1.5C7.75 1.87387 7.63697 2.23158 7.43033 2.50711C7.22357 2.78278 6.89977 3 6.5 3C6.10023 3 5.77643 2.78278 5.56967 2.50711C5.36303 2.23158 5.25 1.87387 5.25 1.5C5.25 1.12613 5.36303 0.768417 5.56967 0.492893ZM8.75 2.5C8.35023 2.5 8.02643 2.71722 7.81967 2.99289C7.61303 3.26842 7.5 3.62613 7.5 4C7.5 4.37387 7.61303 4.73158 7.81967 5.00711C8.02643 5.28278 8.35023 5.5 8.75 5.5C9.14977 5.5 9.47357 5.28278 9.68033 5.00711C9.88697 4.73158 10 4.37387 10 4C10 3.62613 9.88697 3.26842 9.68033 2.99289C9.47357 2.71722 9.14977 2.5 8.75 2.5ZM4.99878 4C4.07875 4 3.20095 4.67766 2.59529 5.41482C1.98002 6.16369 1.5 7.14833 1.5 8C1.5 8.44147 1.62215 8.82234 1.86662 9.12872C2.10563 9.42826 2.42967 9.6167 2.76702 9.73819C3.42259 9.97429 4.25681 10 4.99878 10C5.74079 10 6.57551 9.97427 7.2316 9.73825C7.56916 9.61682 7.8935 9.42845 8.13278 9.12898C8.37758 8.82262 8.5 8.44166 8.5 8C8.5 7.14811 8.01917 6.16339 7.40332 5.41462C6.79706 4.67751 5.91867 4 4.99878 4ZM1.25 2.5C0.85023 2.5 0.526428 2.71722 0.31967 2.99289C0.113027 3.26842 0 3.62613 0 4C0 4.37387 0.113027 4.73158 0.31967 5.00711C0.526428 5.28278 0.85023 5.5 1.25 5.5C1.64977 5.5 1.97357 5.28278 2.18033 5.00711C2.38697 4.73158 2.5 4.37387 2.5 4C2.5 3.62613 2.38697 3.26842 2.18033 2.99289C1.97357 2.71722 1.64977 2.5 1.25 2.5ZM2.56967 0.492893C2.77643 0.217216 3.10023 0 3.5 0C3.89977 0 4.22357 0.217216 4.43033 0.492893C4.63697 0.768417 4.75 1.12613 4.75 1.5C4.75 1.87387 4.63697 2.23158 4.43033 2.50711C4.22357 2.78278 3.89977 3 3.5 3C3.10023 3 2.77643 2.78278 2.56967 2.50711C2.36303 2.23158 2.25 1.87387 2.25 1.5C2.25 1.12613 2.36303 0.768417 2.56967 0.492893Z" clip-rule="evenodd"/>
</svg>
