<svg xmlns="http://www.w3.org/2000/svg" fill="none" viewBox="0 0 10 10">
  <path fill="#000" fill-rule="evenodd" d="M1.06694 0.183058C0.822864 -0.0610194 0.427136 -0.0610194 0.183058 0.183058C-0.0610194 0.427136 -0.0610194 0.822864 0.183058 1.06694L6.96864 7.85252C6.96945 7.85334 6.97026 7.85415 6.97108 7.85497L8.93306 9.81694C9.17714 10.061 9.57286 10.061 9.81694 9.81694C10.061 9.57286 10.061 9.17714 9.81694 8.93306L8.27158 7.38769C8.80639 6.69218 9.125 5.82047 9.125 4.875V4.375C9.125 4.02982 8.84518 3.75 8.5 3.75C8.15482 3.75 7.875 4.02982 7.875 4.375V4.875C7.875 5.47519 7.69152 6.03197 7.37692 6.49303L6.59308 5.70919C6.85559 5.36334 7 4.93912 7 4.5V2C7 1.46957 6.78929 0.960859 6.41421 0.585786C6.03914 0.210714 5.53043 0 5 0C4.46957 0 3.96086 0.210714 3.58579 0.585786C3.21071 0.960859 3 1.46957 3 2V2.11612L1.06694 0.183058ZM2.125 4.375C2.125 4.02982 1.84518 3.75 1.5 3.75C1.15482 3.75 0.875 4.02982 0.875 4.375V4.875C0.875 6.94071 2.39341 8.65177 4.375 8.95296V9.375C4.375 9.72018 4.65482 10 5 10C5.34518 10 5.625 9.72018 5.625 9.375V8.375C5.625 8.02982 5.34518 7.75 5 7.75C3.41218 7.75 2.125 6.46282 2.125 4.875V4.375Z" clip-rule="evenodd"/>
</svg>
